<svg xmlns="http://www.w3.org/2000/svg" version="1.1" xmlns:xlink="http://www.w3.org/1999/xlink" xmlns:svgjs="http://svgjs.com/svgjs" width="512" height="512" x="0" y="0" viewBox="0 0 64 64" style="enable-background:new 0 0 512 512" xml:space="preserve" class=""><g><g xmlns="http://www.w3.org/2000/svg"><g><path d="m53 32c0 5.01-2.4 9.45-6.11 12.25-.01 0-.01 0-.01 0-2.53.86-3.69 2.44-3.69 2.44-1.25-3.25-3.89-5.93-7.45-7.09-3.42-1.12-6.99-.62-9.86 1.08-.28-3.96-1.5-7.51-3.47-10.47.88-7.64 7.37-13.56 15.24-13.56 8.48 0 15.35 6.87 15.35 15.35z" fill="#f9bb3d" data-original="#f9bb3d" class=""></path><path d="m63 26.21-2.93 2.63c-1.88 1.69-1.88 4.63 0 6.32l2.93 2.63-2.61.75c-3.05.89-4.83 4.61-3.62 7.55-1.79-1.51-4.13-2.38-6.5-2.38-1.33 0-2.45.22-3.38.54 3.71-2.8 6.11-7.24 6.11-12.25 0-8.48-6.87-15.35-15.35-15.35-7.87 0-14.36 5.92-15.24 13.56-1.51-2.27-3.46-4.2-5.77-5.69 1.84-1.48 2.61-4.05 1.65-6.39l-.97-2.34 3.88.65c2.49.42 4.79-1.42 4.94-3.94l.23-3.93 3.21 2.27c2.07 1.46 4.94.81 6.16-1.4l1.91-3.44 1.91 3.44c1.23 2.21 4.1 2.86 6.16 1.4l3.21-2.27.23 3.93c.15 2.52 2.45 4.36 4.94 3.94l3.88-.65s-.72 1.75-1.5 3.63c-.96 2.34.32 4.99 2.74 5.7z" fill="#f99430" data-original="#f99430"></path><path d="m43.19 46.69s1.16-1.58 3.69-2.44h.01c.93-.32 2.05-.54 3.38-.54 2.37 0 4.71.87 6.5 2.38 1.94 1.65 3.23 4.04 3.23 6.91 0 5.52-4.48 10-10 10h-50v-42h5c2.81 0 5.68.56 8.42 1.76 1.14.5 2.21 1.08 3.22 1.76 2.31 1.49 4.26 3.42 5.77 5.69 1.97 2.96 3.19 6.51 3.47 10.47 2.87-1.7 6.44-2.2 9.86-1.08 3.56 1.16 6.2 3.84 7.45 7.09z" fill="#72d4e7" data-original="#72d4e7" class=""></path><path d="m59.787 51.052c-.948 4.536-4.97 7.948-9.787 7.948h-30c0-1.657-1.343-3-3-3h-17v3 4h49.533c5.094.076 8.736-2.924 10.076-7.226.54-1.729.489-3.299.178-4.722z" fill="#34b8d6" data-original="#34b8d6"></path><path d="m0 49h11c1.105 0 2 .895 2 2 0 1.105-.895 2-2 2h-11z" fill="#34b8d6" data-original="#34b8d6"></path><circle cx="45" cy="37" fill="#f99430" r="3" data-original="#f99430"></circle><circle cx="46" cy="29" fill="#f99430" r="2" data-original="#f99430"></circle><path d="m39.46 49.133c-.401 0-.78-.243-.934-.641-.762-1.98-2.342-3.488-4.336-4.139-1.923-.631-4.024-.4-5.763.629-.477.283-1.089.124-1.37-.351-.281-.476-.124-1.089.351-1.37 2.23-1.322 4.929-1.619 7.403-.81 2.568.838 4.604 2.777 5.582 5.321.198.516-.06 1.095-.574 1.293-.118.046-.24.068-.359.068z" fill="#abedef" data-original="#abedef"></path></g><g fill="#252525"><circle cx="27" cy="30" r="1" fill="#252525" data-original="#252525" class=""></circle><circle cx="18" cy="58" r="1" fill="#252525" data-original="#252525" class=""></circle><circle cx="8" cy="26" r="1" fill="#252525" data-original="#252525" class=""></circle><path d="m28.047 26.833c.17.113.362.167.552.167.324 0 .642-.157.834-.447 1.829-2.757 4.9-4.402 8.218-4.402.553 0 1-.447 1-1s-.447-1-1-1c-3.989 0-7.685 1.98-9.884 5.297-.306.459-.18 1.08.28 1.385z" fill="#252525" data-original="#252525" class=""></path><path d="m60.739 34.417c-.696-.626-1.079-1.484-1.079-2.417s.383-1.791 1.078-2.416l2.93-2.63c.271-.243.388-.613.307-.968s-.349-.637-.697-.737l-3.776-1.089c-.884-.259-1.619-.884-2.019-1.715-.404-.842-.432-1.781-.078-2.643l1.501-3.632c.138-.336.084-.721-.143-1.004s-.591-.42-.947-.363l-3.882.65c-.916.155-1.824-.08-2.553-.66-.723-.574-1.168-1.432-1.223-2.353l-.23-3.93c-.021-.362-.237-.686-.564-.843-.327-.158-.715-.125-1.011.085l-3.211 2.271c-.761.539-1.678.726-2.592.517-.91-.206-1.661-.77-2.116-1.586l-1.909-3.44c-.176-.317-.511-.514-.875-.514s-.698.197-.874.515l-1.911 3.442c-.449.813-1.194 1.374-2.099 1.582-.899.206-1.851.019-2.609-.516l-3.21-2.27c-.296-.21-.684-.243-1.011-.085-.327.157-.543.48-.564.843l-.23 3.929c-.055.922-.5 1.779-1.222 2.354-.729.58-1.636.815-2.555.659l-3.88-.65c-.358-.059-.722.079-.947.364-.227.284-.281.669-.142 1.005l.969 2.337c.677 1.651.325 3.485-.856 4.762-.846-.523-1.723-1.004-2.688-1.428-2.794-1.223-5.761-1.843-8.821-1.843h-4c-.553 0-1 .447-1 1s.447 1 1 1h4c2.782 0 5.479.563 8.019 1.676 1.114.488 2.116 1.036 3.079 1.685 2.19 1.412 4.034 3.23 5.48 5.403 1.829 2.749 2.913 5.915 3.247 9.413-2.432 1.609-4.263 3.988-5.176 6.782-.172.525.115 1.09.64 1.261.528.174 1.089-.115 1.261-.64.83-2.54 2.549-4.686 4.84-6.04 2.729-1.616 6.024-1.977 9.041-.989 3.144 1.024 5.632 3.394 6.827 6.5.612 1.586.851 3.235.706 4.903-.048.55.359 1.034.91 1.082.692.019 1.037-.389 1.082-.91.153-1.764-.075-3.505-.637-5.192.448-.444 2.806-2.224 5.95-2.224 2.106 0 4.24.781 5.853 2.142 1.856 1.579 2.878 3.762 2.878 6.148 0 4.963-4.037 9-9 9h-49c-.553 0-1 .447-1 1s.447 1 1 1h49c6.065 0 11-4.935 11-11 0-2.982-1.272-5.707-3.586-7.675-1.97-1.662-4.573-2.615-7.145-2.615-.101 0-.198.009-.298.011 2.581-2.945 4.029-6.702 4.029-10.721 0-9.016-7.334-16.35-16.35-16.35-6.165 0-11.741 3.408-14.553 8.894-.252.491-.058 1.094.434 1.346.491.255 1.095.059 1.346-.434 2.468-4.814 7.362-7.806 12.773-7.806 7.912 0 14.35 6.438 14.35 14.35 0 4.498-2.05 8.634-5.622 11.375-1.261.456-2.212 1.068-2.865 1.601-1.561-3.001-4.215-5.269-7.461-6.327-3.076-1.009-6.398-.821-9.323.477-.454-3.491-1.622-6.671-3.485-9.47-1.374-2.065-3.091-3.82-5.068-5.263 1.542-1.829 1.979-4.357 1.039-6.646l-.278-.673 2.099.353c1.459.247 2.969-.143 4.131-1.067 1.166-.928 1.885-2.313 1.973-3.801l.125-2.132 1.741 1.23c1.221.86 2.752 1.165 4.211.831 1.444-.332 2.684-1.267 3.399-2.563l1.036-1.865 1.035 1.866c.725 1.301 1.972 2.236 3.422 2.564 1.451.33 2.977.025 4.189-.835l1.74-1.229.125 2.133c.088 1.486.808 2.872 1.973 3.8 1.163.925 2.67 1.315 4.13 1.067l2.104-.353-.813 1.966c-.564 1.375-.52 2.932.124 4.271.644 1.341 1.832 2.35 3.263 2.77l2.047.59-1.588 1.426c-1.108.996-1.743 2.419-1.743 3.904s.635 2.908 1.742 3.904l1.586 1.424-.879.252c-1.71.499-3.171 1.772-4.009 3.493-.241.496-.035 1.095.462 1.337.141.068.29.101.437.101.371 0 .728-.207.9-.563.591-1.214 1.601-2.106 2.767-2.447l2.61-.75c.35-.101.617-.383.698-.737s-.036-.725-.307-.968z" fill="#252525" data-original="#252525" class=""></path><path d="m20.687 36.938c.519-.192.782-.768.59-1.285-1.579-4.256-4.642-7.54-8.855-9.5-.503-.233-1.096-.015-1.329.485-.232.501-.016 1.096.485 1.329 3.727 1.732 6.432 4.63 7.824 8.381.15.403.728.756 1.285.59z" fill="#252525" data-original="#252525" class=""></path><path d="m54.5 53c0 .553.447 1 1 1s1-.447 1-1c0-3.576-3.234-5.79-6.23-5.79-.553 0-1 .447-1 1s.447 1 1 1c2.034 0 4.23 1.449 4.23 3.79z" fill="#252525" data-original="#252525" class=""></path><path d="m1 59h13c.553 0 1-.447 1-1s-.447-1-1-1h-13c-.553 0-1 .447-1 1s.447 1 1 1z" fill="#252525" data-original="#252525" class=""></path><path d="m0 53c0 .553.447 1 1 1h7c.553 0 1-.447 1-1s-.447-1-1-1h-7c-.553 0-1 .447-1 1z" fill="#252525" data-original="#252525" class=""></path></g></g></g></svg>