 <svg xmlns="http://www.w3.org/2000/svg" version="1.1" xmlns:xlink="http://www.w3.org/1999/xlink" xmlns:svgjs="http://svgjs.com/svgjs" width="512" height="512" x="0" y="0" viewBox="0 0 64 64" style="enable-background:new 0 0 512 512" xml:space="preserve" class=""><g><path xmlns="http://www.w3.org/2000/svg" d="m63 52.95c0 5.16-1.55 7.74-7.23 7.74 0 0-2.58 2.06-6.19.51 0 0-3.1 2.58-5.68-1.54 0 0-3.09 1.54-7.22 0 0 0-5.68 1.03-5.68-5.17 0-.25.01-.49.03-.71.34-5.44 4.62-4.96 4.62-4.96s1.03-3.62 5.67-3.62c0 0 .52-5.16 5.68-5.16s5.16 3.1 5.16 3.1 5.68-1.03 5.68 4.13c0 0 .99.1 2.1.64 1.43.7 3.06 2.13 3.06 5.04z" fill="#38aaff" data-original="#38aaff" class=""></path><path xmlns="http://www.w3.org/2000/svg" d="m63 52.95c0 5.16-1.55 7.74-7.23 7.74 0 0-.88.7-2.33.98 1.93-1.19 2.56-3.43 2.56-6.72 0-2.91-1.63-4.34-3.06-5.04-1.11-.54-2.1-.64-2.1-.64 0-5.16-5.68-4.13-5.68-4.13s0-2.04-2.76-2.81c.82-1.19 2.21-2.29 4.6-2.29 5.16 0 5.16 3.1 5.16 3.1s5.68-1.03 5.68 4.13c0 0 .99.1 2.1.64 1.43.7 3.06 2.13 3.06 5.04z" fill="#2081f6" data-original="#2081f6" class=""></path><path xmlns="http://www.w3.org/2000/svg" d="m62.88 8.66c0 3.04-.91 4.57-4.26 4.57 0 0-1.52 1.21-3.66.3 0 0-1.82 1.52-3.35-.91 0 0-1.82.91-4.26 0 0 0-3.35.61-3.35-3.05 0-3.65 2.74-3.35 2.74-3.35s.61-2.13 3.35-2.13c0 0 .31-3.05 3.35-3.05 3.05 0 3.05 1.83 3.05 1.83s3.35-.61 3.35 2.44c0 0 3.04.3 3.04 3.35z" fill="#bff0ff" data-original="#bff0ff" class=""></path><path xmlns="http://www.w3.org/2000/svg" d="m62.88 8.66c0 3.04-.91 4.57-4.26 4.57 0 0-.13.1-.37.23.17-.61.24-1.33.24-2.18 0-3.05-3.04-3.35-3.04-3.35 0-3.05-3.35-2.44-3.35-2.44s0-1.36-1.95-1.73c.18-.78.87-2.72 3.29-2.72 3.05 0 3.05 1.83 3.05 1.83s3.35-.61 3.35 2.44c0 0 3.04.3 3.04 3.35z" fill="#60daff" data-original="#60daff" class=""></path><path xmlns="http://www.w3.org/2000/svg" d="m22.16 9.14s4.85-.88 5.58 3.06c-6.04 2.3-6.74 9.26-6.74 9.26-5.68 0-8.57 2.79-9.93 4.85-1.2.09-2.71-.02-4.39-.65 0 0-5.68 1.03-5.68-5.17 0-6.19 4.65-5.67 4.65-5.67s1.03-3.62 5.67-3.62c0 0 .52-5.16 5.68-5.16s5.16 3.1 5.16 3.1z" fill="#38aaff" data-original="#38aaff" class=""></path><path xmlns="http://www.w3.org/2000/svg" d="m12.605 18.788c-2.056.336-3.978 1.127-5.605 2.212-1.236 1.236-2.086 2.855-2.322 4.619 1.09.199 2.002.041 2.002.041 1.68.63 3.19.74 4.39.65 1.36-2.06 4.25-4.85 9.93-4.85 0 0 .7-6.96 6.74-9.26-.73-3.94-5.58-3.06-5.58-3.06s-.002-.285-.145-.68c-1.576 1.487-2.792 3.291-3.47 5.379-.854 2.631-3.21 4.502-5.94 4.949z" fill="#2081f6" data-original="#2081f6" class=""></path><path xmlns="http://www.w3.org/2000/svg" d="m63 36.46c0 5.14-.79 8.95-3.06 11.45-1.11-.54-2.1-.64-2.1-.64 0-5.16-5.68-4.13-5.68-4.13s0-3.1-5.16-3.1-5.68 5.16-5.68 5.16c-4.64 0-5.67 3.62-5.67 3.62s-4.28-.48-4.62 4.96c-1.35-.38-2.8-1.28-4.2-3.11-.51-.66-1.35-.96-2.14-.7-2.19.7-6.92 1.65-12.69-.51 0 0-11 2-11-10s9-11 9-11 .27-.95 1.07-2.15c1.36-2.06 4.25-4.85 9.93-4.85 0 0 .7-6.96 6.74-9.26 1.2-.47 2.6-.74 4.26-.74 10 0 10 6 10 6s11-2 11 8c0 0 10 1 10 11z" fill="#bff0ff" data-original="#bff0ff" class=""></path><path xmlns="http://www.w3.org/2000/svg" d="m63 36.46c0 5.14-.79 8.95-3.06 11.45-1.11-.54-2.1-.64-2.1-.64 0-3.22-2.2-4.02-3.87-4.18.02-.53.03-1.07.03-1.63 0-10-10-11-10-11 0-10-11-8-11-8s0-6-10-6h-.25c1.01-1.67 2.57-3.34 4.99-4.26 1.2-.47 2.6-.74 4.26-.74 10 0 10 6 10 6s11-2 11 8c0 0 10 1 10 11z" fill="#60daff" data-original="#60daff" class=""></path><path xmlns="http://www.w3.org/2000/svg" d="m20.604 24.841c-2.865.381-5.819 2.108-7.359 4.642-1.597 2.628 2.523 5.026 4.116 2.406.641-1.054 1.656-1.84 2.839-2.197.565-.171 1.169-.246 1.682-.539.634-.361 1.066-1.052 1.114-1.78.081-1.224-1.08-2.706-2.392-2.532z" fill="#60daff" data-original="#60daff" class=""></path><g xmlns="http://www.w3.org/2000/svg" fill="#2e2442"><path d="m46.082 5.25c-.507.073-1.184.279-1.789.822-.858.767-1.293 1.945-1.293 3.498 0 1.434.437 2.524 1.3 3.244 1.046.874 2.353.873 2.938.823 1.709.578 3.153.391 4.005.163.562.656 1.216 1.047 1.949 1.164.155.025.304.036.449.036.588 0 1.087-.182 1.437-.362 1.82.579 3.239-.056 3.847-.416 4.387-.128 4.959-3.03 4.959-5.565 0-2.566-1.742-3.756-3.121-4.175-.178-.933-.643-1.508-1.047-1.845-.789-.659-1.787-.811-2.502-.818-.453-.876-1.54-1.776-3.772-1.776-2.557 0-3.748 1.729-4.17 3.104-1.696.249-2.703 1.251-3.19 2.103zm5.004-1.056c.042-.359.349-2.152 2.356-2.152 1.549 0 2.016.546 2.046.828 0 .295.133.574.358.764.226.19.526.271.816.221.301-.051 1.274-.103 1.777.32.099.084.399.337.399 1.132 0 .514.389.944.9.995.22.021 2.146.274 2.146 2.354 0 2.769-.732 3.569-3.264 3.569-.218 0-.441.08-.614.211-.045.035-1.122.824-2.647.175-.344-.147-.744-.09-1.034.15-.003.003-.391.294-.816.229-.442-.071-.813-.531-1.046-.904-.188-.301-.514-.47-.849-.47-.151 0-.304.034-.447.105-.015.007-1.492.698-3.465-.042-.164-.062-.349-.075-.523-.049-.273.046-1.1.069-1.605-.357-.381-.323-.574-.896-.574-1.703 0-.652.106-1.527.611-1.994.436-.403 1.008-.362 1.02-.362.471.054.922-.252 1.067-.705.047-.146.51-1.421 2.394-1.421.508 0 .936-.389.994-.894z" fill="#2e2442" data-original="#2e2442" class=""></path><path d="m53.975 24.615c-.164-2.661-1.115-4.733-2.836-6.169-2.704-2.256-6.533-2.248-8.324-2.094-.538-1.973-2.637-5.892-10.815-5.892-1.348 0-2.53.185-3.596.48-1.016-2.431-3.62-2.975-5.491-2.888-.474-1.215-1.86-3.012-5.913-3.012-4.198 0-5.999 3.036-6.525 5.199-3.114.291-4.816 2.17-5.507 3.59-.77.064-1.97.327-3.01 1.257-1.299 1.162-1.958 2.979-1.958 5.404 0 2.216.658 3.888 1.955 4.971 1.661 1.388 3.836 1.307 4.614 1.223.932.328 1.876.533 2.824.614-.022.047-.048.1-.067.144-1.242.025-3.726.34-5.843 2.234-2.312 2.068-3.483 5.36-3.483 9.784 0 3.996 1.16 6.99 3.447 8.899 3.129 2.611 7.317 2.274 8.447 2.128 5.891 2.132 10.721 1.19 13.096.43.377-.12.789.021 1.049.36 1.186 1.548 2.516 2.618 3.961 3.202v.014c0 2.213.657 3.883 1.953 4.965 1.66 1.385 3.833 1.3 4.613 1.22 3.134 1.104 5.707.592 6.961.19.908 1.19 1.968 1.889 3.16 2.08.219.034.433.05.64.05 1.017 0 1.864-.377 2.374-.675 3.157 1.126 5.561-.107 6.39-.64 5.612-.091 7.91-2.644 7.91-8.739 0-2.602-1.167-4.28-2.568-5.307 1.766-2.492 2.567-6.008 2.567-11.177 0-8.949-7.437-11.299-10.025-11.845zm-46.944.109c-.167-.062-.351-.078-.525-.048-.019.003-1.99.327-3.279-.758-.814-.686-1.227-1.839-1.227-3.428 0-1.817.428-3.129 1.273-3.897.977-.889 2.26-.778 2.266-.778.478.051.931-.251 1.071-.713.036-.118.923-2.901 4.71-2.901.51 0 .939-.389.995-.896.047-.437.584-4.265 4.685-4.265 4.017 0 4.156 2.034 4.16 2.1 0 .296.132.575.358.766.226.189.526.268.817.219.357-.062 3.221-.49 4.175 1.513-4.502 2.199-5.941 6.89-6.354 8.844-5.16.248-8.054 2.752-9.588 4.84-1.18.031-2.369-.16-3.537-.598zm48.743 34.964c-.222 0-.443.078-.619.215-.088.068-2.197 1.661-5.181.382-.345-.148-.745-.09-1.034.15-.009.008-.883.711-1.938.539-.808-.129-1.566-.751-2.251-1.849-.188-.301-.515-.468-.851-.468-.148 0-.299.032-.44.102-.112.055-2.799 1.322-6.433-.04-.167-.062-.351-.078-.526-.048-.018.003-1.99.329-3.277-.756-.812-.685-1.224-1.835-1.224-3.421 0-1.821.429-3.135 1.274-3.904.977-.889 2.257-.777 2.261-.779.482.053.929-.251 1.069-.712.036-.118.925-2.896 4.719-2.896.514 0 .944-.39.995-.9.017-.174.474-4.261 4.682-4.261 4.017 0 4.157 2.031 4.161 2.097 0 .296.132.575.358.766.227.19.528.269.817.219.022-.005 2.288-.387 3.575.693.624.523.927 1.325.927 2.451 0 .511.389.939.896.994.438.048 4.266.582 4.266 4.683 0 5.104-1.513 6.743-6.226 6.743zm3.017-13.268c-.156-1.329-.693-2.385-1.603-3.144-1.351-1.127-3.172-1.25-4.27-1.214-.47-1.214-1.854-3.021-5.919-3.021-4.199 0-5.998 3.036-6.522 5.2-3.118.29-4.821 2.166-5.514 3.584-.769.064-1.966.327-3.005 1.257-.884.792-1.465 1.895-1.75 3.28-.91-.488-1.776-1.251-2.582-2.303-.781-1.019-2.057-1.431-3.246-1.048-2.159.692-6.593 1.55-12.029-.489-.169-.063-.352-.083-.53-.047-.043.006-4.231.736-7.093-1.653-1.81-1.51-2.728-3.987-2.728-7.362 0-3.816.94-6.602 2.795-8.275 2.216-2.001 5.068-1.735 5.094-1.73.488.054.938-.25 1.072-.72.018-.063 1.888-6.275 10.039-6.275.512 0 .942-.389.995-.898.039-.373 1.051-9.102 10.005-9.102 8.792 0 8.996 4.806 9 5 0 .296.132.577.359.767s.525.266.818.218c.048-.011 4.847-.834 7.687 1.543 1.417 1.186 2.136 3.027 2.136 5.472 0 .512.389.941.898.995.372.038 9.102 1.052 9.102 10.005 0 4.888-.74 8.077-2.359 10.22-.292-.108-.578-.194-.85-.26z" fill="#2e2442" data-original="#2e2442" class=""></path></g></g></svg>