<svg xmlns="http://www.w3.org/2000/svg" version="1.1" xmlns:xlink="http://www.w3.org/1999/xlink" xmlns:svgjs="http://svgjs.com/svgjs" width="512" height="512" x="0" y="0" viewBox="0 0 64 64" style="enable-background:new 0 0 512 512" xml:space="preserve" class=""><g><g xmlns="http://www.w3.org/2000/svg" id="_13-rain" data-name="13-rain"><path d="m40.5 53-3.06 5.143a3.126 3.126 0 0 0 .874 4.14 3.694 3.694 0 0 0 4.372 0 3.127 3.127 0 0 0 .873-4.14z" fill="#3c9bd4" data-original="#3c9bd4"></path><path d="m49 42 3.5 6.172a3.872 3.872 0 0 1 -1 4.968 4.061 4.061 0 0 1 -5 0 3.873 3.873 0 0 1 -1-4.968z" fill="#57b9e7" data-original="#57b9e7"></path><path d="m32 42-3.5 6.173a3.873 3.873 0 0 0 1 4.968 4.061 4.061 0 0 0 5 0 3.872 3.872 0 0 0 1-4.968z" fill="#57b9e7" data-original="#57b9e7"></path><path d="m15 42-3.5 6.173a3.873 3.873 0 0 0 1 4.968 4.061 4.061 0 0 0 5 0 3.872 3.872 0 0 0 1-4.968z" fill="#57b9e7" data-original="#57b9e7"></path><path d="m18.5 48.175-1.011-1.775a2.754 2.754 0 0 1 -.71 3.535 2.89 2.89 0 0 1 -3.557 0 2.756 2.756 0 0 1 -.71-3.535l-1.012 1.775a3.873 3.873 0 0 0 1 4.968 4.061 4.061 0 0 0 5 0 3.872 3.872 0 0 0 1-4.968z" fill="#2b96cc" data-original="#2b96cc"></path><path d="m35.5 48.175-1.011-1.775a2.754 2.754 0 0 1 -.71 3.535 2.89 2.89 0 0 1 -3.557 0 2.756 2.756 0 0 1 -.71-3.535l-1.012 1.775a3.873 3.873 0 0 0 1 4.968 4.061 4.061 0 0 0 5 0 3.872 3.872 0 0 0 1-4.968z" fill="#2b96cc" data-original="#2b96cc"></path><path d="m52.5 48.175-1.011-1.775a2.754 2.754 0 0 1 -.71 3.535 2.89 2.89 0 0 1 -3.557 0 2.756 2.756 0 0 1 -.71-3.535l-1.012 1.775a3.873 3.873 0 0 0 1 4.968 4.061 4.061 0 0 0 5 0 3.872 3.872 0 0 0 1-4.968z" fill="#2b96cc" data-original="#2b96cc"></path><path d="m23.5 53-3.06 5.143a3.126 3.126 0 0 0 .874 4.14 3.694 3.694 0 0 0 4.372 0 3.127 3.127 0 0 0 .873-4.14z" fill="#3c9bd4" data-original="#3c9bd4"></path><path d="m26.56 58.146-.866-1.456a2.241 2.241 0 0 1 -.626 2.967 2.647 2.647 0 0 1 -3.134 0 2.24 2.24 0 0 1 -.626-2.967l-.867 1.456a3.126 3.126 0 0 0 .874 4.14 3.694 3.694 0 0 0 4.372 0 3.127 3.127 0 0 0 .873-4.14z" fill="#0569a0" data-original="#0569a0"></path><path d="m43.56 58.146-.866-1.456a2.241 2.241 0 0 1 -.626 2.967 2.647 2.647 0 0 1 -3.134 0 2.24 2.24 0 0 1 -.626-2.967l-.867 1.456a3.126 3.126 0 0 0 .874 4.14 3.694 3.694 0 0 0 4.372 0 3.127 3.127 0 0 0 .873-4.14z" fill="#0569a0" data-original="#0569a0"></path><path d="m44.191 6.322a8.5 8.5 0 0 1 10.77 7.35 12 12 0 0 1 -3.961 23.328h-40a10 10 0 0 1 -2.87-19.58 10 10 0 0 1 9.87-8.42 9.1 9.1 0 0 1 .91.04 15.5 15.5 0 0 1 25.28-2.72z" fill="#80dce8" data-original="#80dce8" class=""></path><path d="m50 34h-16.477a2 2 0 0 1 0-4h16.477c4.311 0 5.011-3.253 5.039-3.392a2 2 0 0 1 3.922.785c-.456 2.287-2.917 6.607-8.961 6.607z" fill="#4cb4cc" data-original="#4cb4cc"></path><path d="m23 24a9 9 0 0 1 18 0 10.5 10.5 0 0 0 -9-5.418 10.5 10.5 0 0 0 -9 5.418z" fill="#bbf8f9" data-original="#bbf8f9"></path><path d="m25.141 12a9.955 9.955 0 0 0 -6.23-2.96 9.1 9.1 0 0 0 -.911-.04 10 10 0 0 0 -9.87 8.42 9.107 9.107 0 0 0 -.13 1.58 9.924 9.924 0 0 0 2 6s-.8-6.82 4.429-10.625a13.655 13.655 0 0 1 10.712-2.375z" fill="#bbf8f9" data-original="#bbf8f9"></path><path d="m38.751 11a8.5 8.5 0 0 1 16.21 2.67 7.711 7.711 0 0 1 .04.83 8.495 8.495 0 0 1 -4 7.21s2.8-6.307-2.283-10.22a8.565 8.565 0 0 0 -9.967-.49z" fill="#4cb4cc" data-original="#4cb4cc"></path><path d="m8 19a9.107 9.107 0 0 1 .13-1.58 9.989 9.989 0 0 0 -6.9 11.684 11.44 11.44 0 0 1 7.054-7.754 10.052 10.052 0 0 1 -.284-2.35z" fill="#bbf8f9" data-original="#bbf8f9"></path><path d="m44.191 6.323a15.5 15.5 0 0 0 -25.28 2.719 9.989 9.989 0 0 1 2.489.558 15.642 15.642 0 0 1 11.275-5.348 14.057 14.057 0 0 1 8.776 3.426 8.393 8.393 0 0 1 2.74-1.355z" fill="#4cb4cc" data-original="#4cb4cc"></path><path d="m54.961 13.672a7.7 7.7 0 0 1 .04.83 8.469 8.469 0 0 1 -.575 3.051 13.7 13.7 0 0 1 8.374 9.589 11.944 11.944 0 0 0 -7.839-13.47z" fill="#4cb4cc" data-original="#4cb4cc"></path><rect fill="#4cb4cc" height="4" rx="2" transform="matrix(1 .026 -.026 1 .832 -.621)" width="8.998" x="20.003" y="29.977" data-original="#4cb4cc"></rect><g fill="#151515"><path d="m55.866 12.955a9.38 9.38 0 0 0 -11.342-7.722 16.462 16.462 0 0 0 -26.166 2.785c-.119-.003-.236-.018-.358-.018a11.064 11.064 0 0 0 -10.734 8.664 11 11 0 0 0 3.734 21.336h40a13 13 0 0 0 4.865-25.048zm-4.866 23.045h-40a9 9 0 0 1 -4-17.058v.06a10.87 10.87 0 0 0 2.2 6.6 1 1 0 1 0 1.6-1.202 8.883 8.883 0 0 1 -1.8-5.4 8.119 8.119 0 0 1 .118-1.424 9.058 9.058 0 0 1 9.7-7.539 8.962 8.962 0 0 1 5.6 2.662 1 1 0 0 0 1.432-1.4 10.961 10.961 0 0 0 -5.31-3 14.479 14.479 0 0 1 21.881-2.363 9.506 9.506 0 0 0 -4.58 4.652 1 1 0 1 0 1.82.829 7.5 7.5 0 0 1 14.305 2.361 6.5 6.5 0 0 1 .034.722 7.462 7.462 0 0 1 -3.53 6.362 1 1 0 0 0 1.06 1.7 9.435 9.435 0 0 0 4.427-7.374 11 11 0 0 1 -4.957 20.812z" fill="#151515" data-original="#151515"></path><path d="m58.2 27.026a1.008 1.008 0 0 0 -1.181.775c-.036.171-.949 4.2-6.02 4.2h-3.999a1 1 0 1 0 0 2h4c5.394 0 7.579-3.8 7.98-5.8a1 1 0 0 0 -.78-1.175z" fill="#151515" data-original="#151515"></path><path d="m43 32h-4a1 1 0 1 0 0 2h4a1 1 0 0 0 0-2z" fill="#151515" data-original="#151515"></path><path d="m41 25a1 1 0 0 0 1-1 10 10 0 0 0 -20 0 1 1 0 0 0 2 0 8 8 0 0 1 16 0 1 1 0 0 0 1 1z" fill="#151515" data-original="#151515"></path><path d="m19.368 47.682-3.5-6.172a1.04 1.04 0 0 0 -1.74 0l-3.5 6.172a4.854 4.854 0 0 0 1.251 6.247 5.037 5.037 0 0 0 6.232 0 4.858 4.858 0 0 0 1.257-6.247zm-2.486 4.673a3.075 3.075 0 0 1 -3.763 0 2.866 2.866 0 0 1 -.745-3.687l2.626-4.637 2.626 4.637a2.866 2.866 0 0 1 -.744 3.687z" fill="#151515" data-original="#151515"></path><path d="m49.871 41.51a1.04 1.04 0 0 0 -1.74 0l-3.5 6.172a4.854 4.854 0 0 0 1.251 6.247 5.037 5.037 0 0 0 6.232 0 4.858 4.858 0 0 0 1.251-6.248zm1.011 10.845a3.075 3.075 0 0 1 -3.763 0 2.866 2.866 0 0 1 -.745-3.687l2.626-4.637 2.626 4.637a2.866 2.866 0 0 1 -.744 3.687z" fill="#151515" data-original="#151515"></path><path d="m24.36 52.492a1 1 0 0 0 -1.719 0l-3.059 5.143a4.1 4.1 0 0 0 1.134 5.452 4.679 4.679 0 0 0 5.57 0 4.1 4.1 0 0 0 1.133-5.451zm.728 8.993a2.7 2.7 0 0 1 -3.175 0 2.133 2.133 0 0 1 -.612-2.828l2.2-3.7 2.2 3.7a2.132 2.132 0 0 1 -.613 2.828z" fill="#151515" data-original="#151515"></path><path d="m36.368 47.682-3.5-6.172a1.04 1.04 0 0 0 -1.74 0l-3.5 6.172a4.854 4.854 0 0 0 1.251 6.247 5.037 5.037 0 0 0 6.232 0 4.858 4.858 0 0 0 1.257-6.247zm-2.486 4.673a3.075 3.075 0 0 1 -3.763 0 2.866 2.866 0 0 1 -.745-3.687l2.626-4.637 2.626 4.637a2.866 2.866 0 0 1 -.744 3.687z" fill="#151515" data-original="#151515"></path><path d="m41.36 52.492a1 1 0 0 0 -1.719 0l-3.059 5.143a4.1 4.1 0 0 0 1.134 5.452 4.679 4.679 0 0 0 5.57 0 4.1 4.1 0 0 0 1.133-5.451zm.728 8.993a2.7 2.7 0 0 1 -3.175 0 2.133 2.133 0 0 1 -.612-2.828l2.2-3.7 2.2 3.7a2.132 2.132 0 0 1 -.613 2.828z" fill="#151515" data-original="#151515"></path></g></g></g></svg>