<svg xmlns="http://www.w3.org/2000/svg" version="1.1" xmlns:xlink="http://www.w3.org/1999/xlink" xmlns:svgjs="http://svgjs.com/svgjs" width="512" height="512" x="0" y="0" viewBox="0 0 512 512" style="enable-background:new 0 0 512 512" xml:space="preserve" class=""><g><g xmlns="http://www.w3.org/2000/svg"><path d="m504.501 41.073c-11.252-19.418-32.243-32.489-56.3-32.489-22.581 0-42.468 11.512-54.13 28.983-.736-13.202-11.672-23.681-25.059-23.681-11.405 0-21.026 7.608-24.083 18.024-8.887-14.634-24.975-24.41-43.346-24.41-17.757 0-33.37 9.139-42.421 22.963-7.554-13.075-21.674-21.88-37.86-21.88-14.825 0-27.917 7.388-35.82 18.676-4.601-5.714-11.65-9.373-19.557-9.373-9.582 0-17.908 5.371-22.138 13.266-4.575-6.151-11.898-10.136-20.152-10.136-7.16 0-13.615 3.003-18.188 7.812-7.759-12.167-21.365-20.244-36.867-20.244-18.595 0-34.467 11.617-40.781 27.986-2.11-.576-4.329-.889-6.622-.889-5.047 0-9.741 1.495-13.677 4.058v210.859h497z" fill="#9d9d9d" data-original="#9d9d9d" class=""></path><path d="m504.501 194.736c-7.644-7.53-18.131-12.18-29.709-12.18-8.535 0-16.474 2.534-23.123 6.878-3.505-19.153-20.269-33.673-40.434-33.673-18.469 0-34.093 12.177-39.284 28.939-5.233-17.446-21.406-30.162-40.556-30.162-4.552 0-8.932.726-13.041 2.056-10.234-24.984-34.78-42.59-63.45-42.59-23.076 0-43.472 11.413-55.896 28.89-11.479-28.435-39.321-48.51-71.868-48.51-42.158 0-76.427 33.67-77.444 75.583-5.032-2.335-10.636-3.647-16.549-3.647-9.799 0-18.754 3.587-25.645 9.51v204.543h497v-185.637z" fill="#c0c0c0" data-original="#c0c0c0"></path><path d="m504.501 307.618c-7.023-6.503-16.416-10.483-26.742-10.483-5.913 0-11.517 1.312-16.549 3.647-1.016-41.913-35.286-75.583-77.444-75.583-32.547 0-60.39 20.075-71.868 48.51-12.424-17.477-32.821-28.89-55.896-28.89-28.67 0-53.216 17.606-63.45 42.59-4.109-1.329-8.489-2.056-13.041-2.056-19.15 0-35.323 12.716-40.556 30.162-5.192-16.763-20.816-28.939-39.284-28.939-20.166 0-36.929 14.52-40.434 33.673-6.649-4.344-14.588-6.878-23.123-6.878-11.032 0-21.076 4.222-28.611 11.134v150.609h497v-167.496z" fill="#ececec" data-original="#ececec"></path><path d="m504.501 468.315v-57.725c-7.021-6.508-16.414-10.492-26.742-10.492-12.102 0-22.922 5.467-30.141 14.06-6.054-20.657-25.134-35.748-47.749-35.748-22.055 0-40.747 14.353-47.276 34.223-7.537-6.919-17.585-11.145-28.623-11.145-19.852 0-36.506 13.664-41.088 32.099-5.569-9.065-15.574-15.113-26.994-15.113-8.958 0-17.041 3.726-22.8 9.706-6.226-15.635-21.488-26.692-39.343-26.692-9.396 0-18.073 3.065-25.097 8.243-4.203-27.077-27.615-47.803-55.87-47.803-30.823 0-55.868 24.666-56.515 55.334-5.992-3.248-12.855-5.094-20.15-5.094-11.032 0-21.076 4.222-28.611 11.134v81.198h497z" fill="#f9f6f6" data-original="#f9f6f6"></path><path d="m510.99 37.313c-6.164-10.638-14.999-19.606-25.551-25.936-3.552-2.13-8.158-.979-10.29 2.574-2.131 3.552-.979 8.159 2.573 10.29 7.819 4.69 14.45 11.204 19.278 18.916v137.117c-6.82-3.404-14.379-5.217-22.208-5.217-6.385 0-12.646 1.213-18.493 3.554-7.291-18.045-24.938-30.348-45.064-30.348-15.894 0-30.263 7.556-39.217 19.801-9.198-12.861-24.293-21.025-40.624-21.025-2.969 0-5.919.263-8.824.786-12.952-25.303-38.852-41.32-67.666-41.32-20.493 0-40.023 8.337-54.217 22.752-15.045-26.077-42.776-42.373-73.548-42.373-22.335 0-43.429 8.599-59.394 24.212-13.542 13.243-22.128 30.283-24.733 48.765-3.219-.692-6.515-1.041-9.866-1.041-6.276 0-12.442 1.265-18.146 3.662v-118.184c3.405-1.278 7.24-1.472 10.823-.493 3.714 1.011 7.588-.947 8.973-4.536 5.351-13.868 18.927-23.185 33.784-23.185 12.426 0 23.844 6.272 30.544 16.778 1.24 1.945 3.307 3.211 5.603 3.433 2.293.225 4.566-.625 6.155-2.297 3.361-3.534 7.891-5.48 12.754-5.48 5.62 0 10.772 2.592 14.133 7.112 1.532 2.059 4.014 3.193 6.571 3.003 2.561-.189 4.846-1.675 6.059-3.938 3.075-5.741 9.024-9.307 15.526-9.307 5.351 0 10.35 2.397 13.715 6.576 1.479 1.836 3.714 2.873 6.094 2.792 2.356-.079 4.539-1.262 5.892-3.194 6.786-9.692 17.88-15.478 29.677-15.478 12.885 0 24.904 6.948 31.366 18.132 1.303 2.254 3.683 3.672 6.285 3.745 2.59.077 5.058-1.21 6.484-3.389 8.022-12.256 21.534-19.572 36.144-19.572 15.218 0 29.026 7.777 36.938 20.803 1.542 2.539 4.436 3.925 7.384 3.543 2.946-.386 5.387-2.474 6.223-5.325 2.183-7.439 9.126-12.635 16.886-12.635 9.333 0 17.051 7.291 17.57 16.599.18 3.222 2.4 5.968 5.514 6.818 3.116.851 6.421-.387 8.213-3.072 10.719-16.059 28.622-25.646 47.892-25.646 1.273 0 2.58.044 3.883.13 4.107.28 7.706-2.853 7.98-6.986s-2.853-7.707-6.986-7.981c-1.632-.108-3.272-.164-4.877-.164-19.422 0-37.741 7.722-51.209 21.161-5.713-9.528-16.146-15.859-27.979-15.859-9.866 0-19.021 4.538-25.1 11.841-10.866-11.577-25.996-18.227-42.332-18.227-16.144 0-31.29 6.625-42.176 18.109-9.616-10.688-23.463-17.026-38.104-17.026-13.818 0-26.951 5.607-36.504 15.314-5.449-3.881-12.004-6.01-18.873-6.01-8.755 0-16.968 3.489-22.986 9.477-5.543-4.063-12.312-6.347-19.303-6.347-6.056 0-11.83 1.626-16.854 4.677-9.638-10.835-23.414-17.111-38.202-17.111-18.938 0-36.403 10.701-45.206 27.17-7.046-.474-14.057 1.35-19.967 5.199-2.125 1.384-3.407 3.749-3.407 6.285v464.763c0 4.143 3.357 7.5 7.5 7.5h497c4.143 0 7.5-3.357 7.5-7.5v-463.427c0-1.32-.348-2.617-1.01-3.76zm-13.99 459.687h-482v-70.206c6.048-4.615 13.434-7.126 21.111-7.126 5.792 0 11.523 1.448 16.575 4.187 2.298 1.247 5.081 1.207 7.344-.108 2.261-1.314 3.675-3.711 3.729-6.326.441-20.924 14.124-39.271 34.047-45.654 3.945-1.264 6.118-5.486 4.854-9.431-1.265-3.946-5.488-6.113-9.431-4.854-22.622 7.248-39.084 26.307-43.377 49.117-4.451-1.273-9.085-1.93-13.742-1.93-7.379 0-14.563 1.633-21.111 4.698v-81.369c6.048-4.616 13.433-7.127 21.111-7.127 6.779 0 13.357 1.956 19.021 5.657 2.102 1.374 4.752 1.604 7.062.613 2.308-.99 3.967-3.071 4.419-5.542 2.918-15.947 16.82-27.522 33.056-27.522 14.829 0 27.737 9.507 32.121 23.657.973 3.142 3.878 5.281 7.164 5.281h.034c3.299-.015 6.202-2.185 7.149-5.346 4.383-14.611 18.105-24.816 33.372-24.816 3.651 0 7.262.569 10.731 1.691 3.733 1.209 7.763-.664 9.249-4.293 9.439-23.044 31.621-37.934 56.51-37.934 19.717 0 38.328 9.621 49.783 25.736 1.588 2.232 4.265 3.428 6.99 3.103 2.722-.32 5.052-2.1 6.078-4.641 10.744-26.619 36.225-43.818 64.913-43.818 2.164 0 4.411.109 6.679.323 4.127.386 7.783-2.637 8.173-6.761s-2.637-7.783-6.761-8.173c-2.734-.258-5.457-.39-8.091-.39-30.771 0-58.504 16.296-73.548 42.373-14.193-14.416-33.723-22.753-54.217-22.753-28.813 0-54.713 16.018-67.666 41.32-2.905-.521-5.855-.785-8.824-.785-16.331 0-31.426 8.164-40.624 21.024-8.954-12.245-23.323-19.801-39.217-19.801-20.126 0-37.773 12.302-45.064 30.348-5.847-2.34-12.107-3.554-18.493-3.554-7.379 0-14.563 1.633-21.111 4.699v-131.069c5.309-3.681 11.641-5.679 18.146-5.679 4.667 0 9.173.993 13.392 2.95 2.292 1.063 4.967.902 7.116-.433 2.147-1.334 3.478-3.661 3.539-6.188.913-37.642 32.291-68.265 69.946-68.265 28.688 0 54.168 17.199 64.913 43.818 1.026 2.541 3.356 4.321 6.078 4.641 2.724.317 5.401-.87 6.99-3.103 11.455-16.115 30.066-25.736 49.783-25.736 24.889 0 47.07 14.89 56.51 37.933 1.487 3.63 5.519 5.5 9.249 4.293 3.47-1.122 7.08-1.691 10.731-1.691 15.267 0 28.989 10.205 33.372 24.817.947 3.161 3.85 5.33 7.149 5.345 3.325.008 6.223-2.128 7.198-5.281 4.384-14.151 17.292-23.658 32.121-23.658 16.235 0 30.138 11.575 33.056 27.523.452 2.47 2.111 4.551 4.419 5.542 2.31.991 4.959.761 7.062-.613 5.664-3.701 12.242-5.657 19.021-5.657 8.191 0 15.97 2.821 22.208 8v95.707c-5.99-2.7-12.53-4.128-19.242-4.128-3.355 0-6.655.35-9.878 1.043-3.805-26.617-20.125-50.199-44.202-63.036-3.655-1.949-8.197-.565-10.146 3.09-1.948 3.655-.565 8.198 3.09 10.146 22.267 11.871 36.479 34.894 37.09 60.085.062 2.527 1.393 4.854 3.539 6.188 2.147 1.334 4.822 1.496 7.116.434 4.22-1.958 8.725-2.951 13.392-2.951 6.997 0 13.722 2.278 19.242 6.469v85.625c-5.99-2.702-12.529-4.13-19.242-4.13-9.911 0-19.42 3.115-27.301 8.775-9.793-18.373-29.242-30.464-50.59-30.464-21.372 0-40.563 11.755-50.414 30.081-7.65-4.56-16.425-7.003-25.484-7.003-18.462 0-34.944 10.059-43.562 25.577-6.833-5.505-15.403-8.592-24.519-8.592-7.307 0-14.282 1.977-20.344 5.682-9.062-14.02-24.605-22.667-41.8-22.667-7.055 0-13.892 1.454-20.198 4.259-7.101-21.229-25.138-37.701-47.478-42.421-4.051-.856-8.031 1.735-8.888 5.787-.856 4.053 1.735 8.032 5.787 8.889 19.789 4.181 35.168 20.408 38.269 40.38.402 2.592 2.13 4.785 4.555 5.784 2.427.998 5.195.658 7.308-.898 6.015-4.435 13.154-6.779 20.646-6.779 14.354 0 27.062 8.622 32.375 21.966.942 2.367 3.022 4.094 5.522 4.585 2.503.492 5.079-.32 6.847-2.156 4.603-4.778 10.781-7.409 17.399-7.409 8.462 0 16.164 4.313 20.603 11.539 1.582 2.574 4.552 3.949 7.539 3.485 2.985-.462 5.401-2.671 6.13-5.603 3.864-15.548 17.767-26.407 33.81-26.407 8.745 0 17.108 3.257 23.55 9.17 1.878 1.723 4.502 2.372 6.967 1.731 2.465-.644 4.436-2.495 5.23-4.915 5.713-17.385 21.848-29.064 40.151-29.064 18.638 0 35.312 12.483 40.552 30.357.777 2.653 2.951 4.663 5.657 5.23 2.705.566 5.504-.398 7.282-2.516 6.079-7.234 14.972-11.384 24.399-11.384 6.999 0 13.724 2.28 19.242 6.475v82.928z" fill="#000000" data-original="#000000"></path></g></g></svg>