<svg xmlns="http://www.w3.org/2000/svg" version="1.1" xmlns:xlink="http://www.w3.org/1999/xlink" xmlns:svgjs="http://svgjs.com/svgjs" width="512" height="512" x="0" y="0" viewBox="0 0 511 512" style="enable-background:new 0 0 512 512" xml:space="preserve" class=""><g><path xmlns="http://www.w3.org/2000/svg" d="m417.238281 470.796875c0 18.5-15.136719 33.640625-33.636719 33.640625h-254.535156c-9.246094 0-17.660156-3.78125-23.757812-9.878906s-9.878906-14.515625-9.878906-23.761719c0-18.496094 15.136718-33.636719 33.636718-33.636719h25.769532c1.855468 0 2.933593-2.09375 1.855468-3.609375-14.003906-19.847656-22.238281-44.058593-22.238281-70.195312 0-29.667969 10.597656-56.847657 28.214844-77.980469 8.550781-10.253906 18.765625-19.089844 30.207031-26.085938.617188-.375 1-.964843 1.136719-1.597656.1875-.855468-.085938-1.804687-.828125-2.4375-21.152344-17.925781-34.578125-44.6875-34.578125-74.585937 0-55.238281 45.824219-99.773438 101.53125-97.660157 4.421875.171876 8.769531.632813 13.019531 1.378907 45.582031 7.953125 80.390625 47.773437 80.90625 95.195312.324219 30.335938-13.171875 57.523438-34.570312 75.671875-.710938.597656-.992188 1.480469-.855469 2.300782.105469.691406.496093 1.332031 1.15625 1.734374 11.339843 6.9375 21.464843 15.667969 29.976562 25.8125 17.753907 21.167969 28.445313 48.457032 28.445313 78.253907 0 26.136719-8.238282 50.347656-22.238282 70.199219-1.078124 1.515624 0 3.609374 1.855469 3.609374h25.769531c9.246094 0 17.660157 3.78125 23.757813 9.878907 6.101563 6.097656 9.878906 14.511719 9.878906 23.753906zm0 0" fill="#c2eaf2" data-original="#c2eaf2" class=""></path><path xmlns="http://www.w3.org/2000/svg" d="m417.238281 470.796875c0 18.5-15.136719 33.640625-33.636719 33.640625h-220.882812c-9.242188 0-17.660156-3.78125-23.757812-9.878906-6.097657-6.097656-9.875-14.515625-9.875-23.761719 0-18.496094 15.136718-33.636719 33.636718-33.636719h25.765625c1.855469 0 2.933594-2.09375 1.855469-3.609375-14-19.847656-22.234375-44.058593-22.234375-70.195312 0-29.667969 10.597656-56.847657 28.214844-77.980469 8.550781-10.253906 18.761719-19.089844 30.207031-26.085938.613281-.375 1-.964843 1.136719-1.597656.1875-.855468-.085938-1.804687-.832031-2.4375-21.148438-17.925781-34.578126-44.6875-34.578126-74.585937 0-48.234375 34.945313-88.304688 80.898438-96.28125 45.585938 7.953125 80.394531 47.773437 80.90625 95.195312.324219 30.335938-13.171875 57.523438-34.570312 75.671875-.707032.597656-.992188 1.480469-.855469 2.300782.105469.691406.5 1.332031 1.15625 1.734374 11.339843 6.9375 21.46875 15.667969 29.976562 25.8125 17.753907 21.167969 28.445313 48.457032 28.445313 78.253907 0 26.136719-8.234375 50.347656-22.234375 70.199219-1.078125 1.515624 0 3.609374 1.855469 3.609374h25.765624c9.246094 0 17.664063 3.78125 23.757813 9.878907 6.101563 6.097656 9.878906 14.511719 9.878906 23.753906zm0 0" fill="#def4f8" data-original="#def4f8"></path><path xmlns="http://www.w3.org/2000/svg" d="m335.328125 301.726562v52.074219h-64.519531v-60.113281l64.519531-8.207031zm0 0" fill="#d63030" data-original="#d63030"></path><path xmlns="http://www.w3.org/2000/svg" d="m249.578125 184.960938-42.546875 20.183593c-3.425781 1.621094-2.269531 6.765625 1.523438 6.765625h48.117187c7.578125 0 14.074219-5.960937 14.132813-13.535156.03125-3.902344-1.628907-8.148438-6.773438-12.027344-4.15625-3.132812-9.75-3.621094-14.453125-1.386718zm0 0" fill="#ffa90b" data-original="#ffa90b"></path><path xmlns="http://www.w3.org/2000/svg" d="m349.769531 285.101562-4.488281 3.789063c-100.097656 55.109375-177.890625.085937-177.890625.085937l-4.722656-3.601562c8.554687-10.253906 18.765625-19.089844 30.207031-26.085938.617188-.375 1.003906-.964843 1.140625-1.597656 7.960937 4.738282 59.558594 32.542969 124.625-.136718.101563.691406.496094 1.332031 1.152344 1.734374 11.339843 6.9375 21.46875 15.667969 29.976562 25.8125zm0 0" fill="#f44545" data-original="#f44545"></path><path xmlns="http://www.w3.org/2000/svg" d="m194.011719 257.691406c-.136719.632813-.519531 1.222656-1.136719 1.597656-11.441406 6.996094-21.652344 15.832032-30.207031 26.085938l4.722656 3.597656s6.808594 4.816406 18.992187 10.179688c2.996094-4.832032 6.3125-9.433594 9.941407-13.777344 5.660156-6.785156 12.039062-12.949219 19.027343-18.371094-11.203124-3.601562-18.6875-7.738281-21.339843-9.3125zm0 0" fill="#d63030" data-original="#d63030"></path><path xmlns="http://www.w3.org/2000/svg" d="m317.386719 34.558594v74.523437h-130.957031v-74.523437c0-14.90625 12.089843-26.996094 26.996093-26.996094h76.964844c14.914063 0 26.996094 12.089844 26.996094 26.996094zm0 0" fill="#4e5a61" data-original="#4e5a61" class=""></path><path xmlns="http://www.w3.org/2000/svg" d="m317.386719 34.558594v74.523437h-87.363281v-74.523437c0-14.90625 12.09375-26.996094 26.996093-26.996094h33.371094c14.914063 0 26.996094 12.089844 26.996094 26.996094zm0 0" fill="#5f6c75" data-original="#5f6c75"></path><path xmlns="http://www.w3.org/2000/svg" d="m343.8125 130.261719h-183.808594c-11.695312 0-21.175781-9.484375-21.175781-21.179688 0-11.695312 9.480469-21.175781 21.175781-21.175781h183.808594c11.695312 0 21.179688 9.480469 21.179688 21.175781 0 11.695313-9.484376 21.179688-21.179688 21.179688zm0 0" fill="#4e5a61" data-original="#4e5a61" class=""></path><path xmlns="http://www.w3.org/2000/svg" d="m383.621094 429.589844h-16.042969c20.761719-34.75 23.730469-76.84375 9.1875-113.769532l22.363281-17.257812h48.980469c4.175781 0 7.5625-3.386719 7.5625-7.5625 0-4.179688-3.386719-7.5625-7.5625-7.5625h-29.382813l43.078126-33.25c3.308593-2.554688 3.917968-7.304688 1.367187-10.609375-2.550781-3.308594-7.300781-3.917969-10.609375-1.367187l-42.636719 32.910156 7.222657-25.984375c1.121093-4.027344-1.234376-8.195313-5.257813-9.3125-4.027344-1.125-8.195313 1.234375-9.316406 5.261719l-12.636719 45.464843-19.707031 15.207031c-9.855469-18.207031-23.9375-33.726562-40.832031-45.308593 32.222656-31.039063 41.355468-78.984375 22.597656-119.8125 11.878906-3.53125 20.5625-14.554688 20.5625-27.550781 0-15.84375-12.898438-28.742188-28.738282-28.742188h-18.871093v-45.785156c0-19.046875-15.5-34.558594-34.558594-34.558594h-62.664063c-4.175781 0-7.5625 3.386719-7.5625 7.5625 0 4.1875 3.386719 7.5625 7.5625 7.5625h62.664063c10.71875 0 19.433594 8.726562 19.433594 19.433594v45.785156c-11.492188 0-102.65625 0-115.832031 0v-45.785156c0-6.484375 3.226562-12.515625 8.613281-16.144532 3.46875-2.328124 4.398437-7.027343 2.066406-10.488281-2.328125-3.46875-7.027344-4.394531-10.496094-2.066406-9.582031 6.445313-15.308593 17.171875-15.308593 28.699219v45.785156h-18.859376c-15.851562 0-28.738281 12.898438-28.738281 28.742188 0 15.566406 12.5625 28.738281 28.871094 28.738281-17.546875 39.136719-9.722656 86.976562 23.132813 118.625-16.84375 11.539062-30.960938 27.050781-40.851563 45.347656l-19.757813-15.246094-12.640624-45.464843c-1.117188-4.027344-5.285157-6.386719-9.3125-5.261719-4.023438 1.117187-6.378907 5.285156-5.261719 9.3125l7.226562 25.984375-42.636719-32.910156c-3.308593-2.550782-8.058593-1.941407-10.609374 1.367187-2.554688 3.304687-1.941407 8.054687 1.363281 10.609375l43.082031 33.25h-29.386719c-4.175781 0-7.5625 3.382812-7.5625 7.5625 0 4.175781 3.386719 7.5625 7.5625 7.5625h48.984375l22.414063 17.300781c-14.207031 36.105469-11.980469 78.269531 9.207031 113.726563h-16.046875c-22.71875 0-41.214844 18.484375-41.214844 41.203125 0 22.722656 18.496094 41.207031 41.214844 41.207031h238.339844c4.171875 0 7.5625-3.378906 7.5625-7.5625 0-4.175781-3.390625-7.5625-7.5625-7.5625h-238.339844c-14.378906 0-26.085937-11.699219-26.085937-26.082031 0-14.378907 11.707031-26.078125 26.085937-26.078125h25.765625c7.941406 0 12.664062-8.996094 8.039062-15.539063-28.65625-40.601562-27.378906-94.671875 1.214844-133.519531 3.808594 2.085938 22.140625 11.667969 26.164063 11.667969 8.273437 0 10.519531-11.453125 2.84375-14.570313-6.335938-2.570312-12.714844-5.574218-19.003907-8.90625 6.667969-6.867187 14.273438-12.976562 22.714844-18.136718 34.195313 16.570312 77.328125 18.230468 118.664063-.304688 2.09375 1.425781 12.355469 7.246094 23.402343 18.695312-30.074218 18.65625-73.980468 27.578126-118.113281 17.425782-4.074219-.9375-8.128906 1.605468-9.066406 5.675781-.9375 4.066406 1.601563 8.128906 5.675781 9.066406 15.988282 3.675781 30.84375 4.957031 45.894532 4.601563v52.09375c0 4.175781 3.386718 7.5625 7.566406 7.5625 4.175781 0 7.5625-3.386719 7.5625-7.5625v-11.597656h16.789062v11.59375c0 4.179687 3.386719 7.5625 7.5625 7.5625 4.175782 0 7.5625-3.382813 7.5625-7.5625v-11.59375h17.480469v11.59375c0 4.179687 3.386719 7.5625 7.5625 7.5625 4.179687 0 7.566406-3.382813 7.566406-7.5625 0-1.054688-.003906-13.851563-.003906-73.644532 2.765625-1.578125 4.707031-2.820312 5.796875-3.542968 28.152344 38.351562 30.085938 92.382812 1.121094 133.410156-4.605469 6.535156.101562 15.53125 8.046875 15.53125h25.765625c14.378906 0 26.089844 11.699218 26.089844 26.078125 0 10.277343-6.113282 19.636719-15.5625 23.851562-9.023438 4.03125-3.105469 17.894531 6.164062 13.816407 14.894531-6.648438 24.523438-21.429688 24.523438-37.667969 0-22.71875-18.496094-41.203125-41.214844-41.203125zm-223.613282-306.894532c-7.511718 0-13.613281-6.109374-13.613281-13.613281 0-7.5 6.101563-13.613281 13.613281-13.613281h183.808594c7.503906 0 13.617188 6.113281 13.617188 13.613281 0 7.542969-6.167969 13.613281-13.617188 13.613281-4.828125 0-178.675781 0-183.808594 0zm155.550782 125.917969c-27.566406 13.921875-55.761719 18.226563-83.820313 12.78125-19.3125-3.75-32.011719-11.097656-34.292969-12.488281-32.75-28.273438-40.132812-74.726562-20.554687-111.082031h158.777344c20.066406 37.132812 11.699219 83.074219-20.109375 110.789062zm12.203125 97.625c-7.882813 0-41.976563 0-49.390625 0v-26.460937c20.390625-2.320313 37.210937-7.804688 49.390625-13.019532zm0 0" fill="#000000" data-original="#000000" class=""></path><path xmlns="http://www.w3.org/2000/svg" d="m225.546875 166.238281c0 6.621094-5.367187 11.992188-11.992187 11.992188-6.621094 0-11.992188-5.371094-11.992188-11.992188 0-6.625 5.371094-11.992187 11.992188-11.992187 6.625 0 11.992187 5.367187 11.992187 11.992187zm0 0" fill="#000000" data-original="#000000" class=""></path><path xmlns="http://www.w3.org/2000/svg" d="m311.105469 166.238281c0 6.621094-5.371094 11.992188-11.992188 11.992188-6.625 0-11.992187-5.371094-11.992187-11.992188 0-6.625 5.367187-11.992187 11.992187-11.992187 6.621094 0 11.992188 5.367187 11.992188 11.992187zm0 0" fill="#000000" data-original="#000000" class=""></path><path xmlns="http://www.w3.org/2000/svg" d="m246.335938 178.070312-42.558594 20.1875c-10.6875 5.066407-7.054688 21.164063 4.765625 21.164063h48.128906c11.871094 0 21.605469-9.4375 21.699219-21.039063.117187-14.738281-16.53125-27.667968-32.035156-20.3125zm10.335937 26.226563h-30.328125l26.472656-12.558594c5.382813-2.550781 10.457032 2.964844 10.425782 6.523438-.023438 3.269531-3.035157 6.035156-6.570313 6.035156zm0 0" fill="#000000" data-original="#000000" class=""></path><path xmlns="http://www.w3.org/2000/svg" d="m89.046875 47.925781h14.539063l-10.28125 10.28125c-4.78125 4.78125-1.328126 12.910157 5.347656 12.910157 4.03125 0 4.847656-1.710938 15.628906-12.492188v14.535156c0 4.179688 3.386719 7.5625 7.5625 7.5625 4.179688 0 7.5625-3.382812 7.5625-7.5625v-14.535156c10.808594 10.804688 11.609375 12.492188 15.628906 12.492188 6.679688 0 10.125-8.132813 5.347656-12.910157l-10.277343-10.28125h14.535156c4.179687 0 7.566406-3.382812 7.566406-7.5625 0-4.175781-3.386719-7.5625-7.566406-7.5625h-14.535156l10.277343-10.277343c2.953126-2.957032 2.953126-7.746094 0-10.699219-2.953124-2.953125-7.742187-2.953125-10.695312 0l-10.28125 10.28125v-14.539063c0-4.179687-3.382812-7.56249975-7.5625-7.56249975-4.175781 0-7.5625 3.38281275-7.5625 7.56249975v14.539063l-10.28125-10.28125c-2.953125-2.953125-7.742188-2.953125-10.695312 0-2.953126 2.953125-2.953126 7.742187 0 10.695312l10.28125 10.28125h-14.539063c-4.175781 0-7.5625 3.382813-7.5625 7.5625 0 4.179688 3.386719 7.5625 7.5625 7.5625zm0 0" fill="#000000" data-original="#000000" class=""></path><path xmlns="http://www.w3.org/2000/svg" d="m8.0625 191.089844h14.539062l-10.28125 10.277344c-4.777343 4.78125-1.328124 12.914062 5.347657 12.914062 4.03125 0 4.847656-1.714844 15.628906-12.496094v14.535156c0 4.179688 3.386719 7.566407 7.566406 7.566407 4.175781 0 7.5625-3.386719 7.5625-7.566407v-14.535156l10.28125 10.28125c2.953125 2.953125 7.742188 2.953125 10.695313 0 2.953125-2.957031 2.953125-7.746094 0-10.699218l-10.28125-10.277344h14.539062c4.175782 0 7.5625-3.386719 7.5625-7.5625 0-4.179688-3.386718-7.566406-7.5625-7.566406h-14.539062l10.277344-10.277344c2.957031-2.957032 2.957031-7.742188 0-10.695313-2.953126-2.953125-7.742188-2.957031-10.695313 0l-10.277344 10.277344v-14.535156c0-4.179688-3.386719-7.566407-7.566406-7.566407-4.175781 0-7.5625 3.386719-7.5625 7.566407v14.539062l-10.277344-10.28125c-2.957031-2.953125-7.746093-2.953125-10.699219 0-2.953124 2.953125-2.953124 7.742188 0 10.695313l10.28125 10.28125h-14.539062c-4.175781 0-7.5625 3.382812-7.5625 7.5625 0 4.175781 3.386719 7.5625 7.5625 7.5625zm0 0" fill="#000000" data-original="#000000" class=""></path><path xmlns="http://www.w3.org/2000/svg" d="m415.3125 147.511719h14.539062l-10.28125 10.28125c-4.78125 4.78125-1.328124 12.914062 5.347657 12.914062 4.03125 0 4.847656-1.714843 15.628906-12.496093v14.539062c0 4.175781 3.386719 7.5625 7.5625 7.5625s7.5625-3.386719 7.5625-7.5625v-14.539062l10.28125 10.28125c2.953125 2.953124 7.742187 2.953124 10.695313 0 2.953124-2.957032 2.953124-7.746094 0-10.699219l-10.28125-10.277344h14.539062c4.175781 0 7.5625-3.386719 7.5625-7.566406 0-4.175781-3.386719-7.5625-7.5625-7.5625h-14.535156l10.277344-10.277344c2.953124-2.957031 2.953124-7.742187 0-10.699219-2.953126-2.953125-7.742188-2.953125-10.695313 0l-10.28125 10.28125v-14.539062c0-4.175782-3.386719-7.5625-7.5625-7.5625s-7.5625 3.386718-7.5625 7.5625v14.539062l-10.28125-10.28125c-2.953125-2.953125-7.742187-2.953125-10.695313 0-2.953124 2.957032-2.953124 7.746094 0 10.699219l10.277344 10.277344h-14.535156c-4.179688 0-7.5625 3.386719-7.5625 7.5625 0 4.179687 3.382812 7.5625 7.5625 7.5625zm0 0" fill="#000000" data-original="#000000" class=""></path><path xmlns="http://www.w3.org/2000/svg" d="m480.90625 375.511719h-14.535156l10.277344-10.277344c2.953124-2.953125 2.953124-7.742187 0-10.695313-2.953126-2.953124-7.742188-2.957031-10.695313 0l-10.28125 10.277344v-14.535156c0-4.179688-3.386719-7.566406-7.5625-7.566406s-7.5625 3.386718-7.5625 7.566406v14.535156l-10.28125-10.28125c-2.953125-2.953125-7.742187-2.953125-10.695313 0-2.953124 2.957032-2.953124 7.746094 0 10.699219l10.277344 10.277344h-14.535156c-4.179688 0-7.5625 3.386719-7.5625 7.5625 0 4.179687 3.382812 7.566406 7.5625 7.566406h14.535156l-10.277344 10.277344c-2.953124 2.953125-2.953124 7.742187 0 10.695312 2.953126 2.957031 7.742188 2.953125 10.695313 0l10.28125-10.277343v14.535156c0 4.179687 3.386719 7.566406 7.5625 7.566406s7.5625-3.386719 7.5625-7.566406v-14.539063c10.8125 10.8125 11.609375 12.496094 15.628906 12.496094 6.679688 0 10.125-8.132813 5.347657-12.910156l-10.277344-10.28125h14.539062c4.175782 0 7.5625-3.382813 7.5625-7.5625 0-4.175781-3.386718-7.5625-7.566406-7.5625zm0 0" fill="#000000" data-original="#000000" class=""></path><path xmlns="http://www.w3.org/2000/svg" d="m73.660156 408.3125h-14.539062l10.277344-10.28125c2.957031-2.953125 2.957031-7.742188 0-10.695312-2.953126-2.953126-7.742188-2.953126-10.695313 0l-10.277344 10.28125v-14.539063c0-4.175781-3.386719-7.5625-7.566406-7.5625-4.175781 0-7.5625 3.386719-7.5625 7.5625v14.539063l-10.277344-10.28125c-2.957031-2.953126-7.746093-2.953126-10.699219 0-2.953124 2.957031-2.953124 7.746093 0 10.699218l10.28125 10.277344h-14.539062c-4.175781 0-7.5625 3.386719-7.5625 7.5625 0 4.179688 3.386719 7.566406 7.5625 7.566406h14.539062l-10.28125 10.277344c-2.953124 2.957031-2.953124 7.742188 0 10.695312 2.957032 2.957032 7.746094 2.953126 10.699219 0l10.277344-10.277343v14.535156c0 4.179687 3.386719 7.566406 7.5625 7.566406 4.179687 0 7.566406-3.386719 7.566406-7.566406v-14.535156c10.804688 10.804687 11.605469 12.496093 15.625 12.496093 6.679688 0 10.128907-8.132812 5.347657-12.914062l-10.277344-10.277344h14.539062c4.175782 0 7.5625-3.386718 7.5625-7.566406 0-4.175781-3.386718-7.5625-7.5625-7.5625zm0 0" fill="#000000" data-original="#000000" class=""></path></g></svg>